<svg width="313" height="302" viewBox="0 0 313 302" fill="none" xmlns="http://www.w3.org/2000/svg">
<path d="M178.864 294.529C178.602 294.529 178.33 294.463 178.079 294.333L46.4032 223.236C46.0295 223.036 45.7669 222.701 45.6754 222.312C45.5838 221.924 45.6732 221.52 45.9216 221.195L151.974 82.8619C152.476 82.2199 153.434 82.0649 154.132 82.5169C154.84 82.9689 155.003 83.8549 154.513 84.4969L49.4255 221.569L177.458 290.697L181.62 220.074C181.664 219.29 182.383 218.695 183.243 218.731C184.104 218.774 184.758 219.444 184.703 220.226L180.411 293.182C180.378 293.678 180.073 294.124 179.594 294.358C179.365 294.472 179.114 294.529 178.864 294.529ZM184.42 200.279C184.387 200.279 184.366 200.279 184.333 200.276C183.483 200.233 182.829 199.563 182.873 198.781L192.515 34.9349L167.881 67.0649C167.391 67.7069 166.432 67.8619 165.724 67.4099C165.027 66.9579 164.863 66.0719 165.354 65.4299L193.092 29.2509C193.496 28.7329 194.215 28.5169 194.868 28.7249C195.522 28.9329 195.947 29.5119 195.903 30.1439L185.967 198.936C185.924 199.693 185.237 200.28 184.42 200.28V200.279Z" fill="#333333"/>
<path d="M302.795 223.432H215.951C215.101 223.432 214.403 222.795 214.403 222.01C214.403 221.225 215.101 220.588 215.951 220.588H300.355L240.04 102.945L67.4558 163.029C66.6529 163.309 65.7595 162.938 65.4588 162.204C65.1537 161.47 65.5579 160.648 66.3576 160.371L240.29 99.8199C241.042 99.5579 241.892 99.8699 242.24 100.543L304.201 221.404C304.43 221.844 304.397 222.362 304.114 222.773C303.83 223.184 303.329 223.433 302.806 223.433L302.795 223.432ZM192.722 223.432H47.1888C46.6713 223.432 46.1875 223.193 45.8999 222.8L14.9164 180.143C14.6538 179.783 14.5874 179.333 14.7312 178.92C14.875 178.508 15.2161 178.178 15.6584 178.023L44.6328 167.935C45.4347 167.656 46.3281 168.027 46.6299 168.761C46.9338 169.494 46.5307 170.317 45.731 170.594L18.5739 180.047L48.0179 220.588H192.722C193.572 220.588 194.269 221.225 194.269 222.01C194.269 222.794 193.572 223.432 192.722 223.432Z" fill="#333333"/>
<path d="M16.2054 180.779C15.8404 180.779 15.4776 180.66 15.1899 180.431C14.7585 180.091 14.5678 179.558 14.692 179.047L45.6754 51.0749C45.767 50.6939 46.0263 50.3639 46.3913 50.1639C46.7574 49.9629 47.1964 49.9099 47.6039 50.0139L117.841 68.0639C118.665 68.2749 119.147 69.0599 118.914 69.8159C118.685 70.5729 117.827 71.0149 117.006 70.8009L48.3426 53.1549L18.3364 177.084L99.3806 148.87C100.179 148.591 101.076 148.962 101.378 149.696C101.682 150.429 101.277 151.252 100.479 151.529L16.7577 180.683C16.5779 180.743 16.3916 180.774 16.2064 180.774L16.2054 180.779ZM121.664 144.067C121.032 144.067 120.444 143.716 120.215 143.15C119.91 142.416 120.313 141.594 121.109 141.317L235.878 101.36L139.391 76.5609C138.563 76.3499 138.083 75.5649 138.312 74.8089C138.541 74.0519 139.402 73.6099 140.219 73.8239L241.249 99.7879C241.903 99.9529 242.349 100.479 242.382 101.093C242.415 101.707 242.012 102.269 241.391 102.487L122.209 143.978C122.024 144.036 121.839 144.067 121.664 144.067Z" fill="#333333"/>
<path d="M295.049 301.64C285.657 301.64 278.009 294.625 278.009 286C278.009 277.375 285.657 270.359 295.049 270.359C304.451 270.359 312.089 277.375 312.089 286C312.089 294.625 304.451 301.64 295.049 301.64ZM295.049 273.202C287.368 273.202 281.114 278.943 281.114 286C281.114 293.056 287.368 298.797 295.049 298.797C302.741 298.797 308.995 293.056 308.995 286C308.995 278.943 302.741 273.202 295.049 273.202Z" fill="#333333"/>
<path d="M109.155 31.4809C99.7575 31.4809 92.1146 24.4649 92.1146 15.8399C92.1146 7.21494 99.7575 0.199951 109.155 0.199951C118.552 0.199951 126.197 7.21494 126.197 15.8399C126.197 24.4649 118.552 31.4809 109.155 31.4809ZM109.155 3.04294C101.467 3.04294 95.2121 8.78394 95.2121 15.8399C95.2121 22.8969 101.467 28.6369 109.155 28.6369C116.842 28.6369 123.102 22.8969 123.102 15.8399C123.102 8.78394 116.842 3.04294 109.155 3.04294Z" fill="#333333"/>
<path d="M256.317 202.106C255.914 202.106 255.521 201.948 255.216 201.687C254.933 201.423 254.77 201.055 254.77 200.684C254.77 200.305 254.933 199.937 255.216 199.673C255.805 199.148 256.84 199.148 257.406 199.673C257.7 199.942 257.864 200.305 257.864 200.684C257.864 201.054 257.7 201.423 257.406 201.687C257.123 201.948 256.731 202.106 256.317 202.106Z" fill="#333333"/>
<path d="M233.089 202.106C232.675 202.106 232.282 201.948 231.988 201.687C231.705 201.423 231.541 201.055 231.541 200.684C231.541 200.305 231.705 199.937 231.988 199.673C232.555 199.148 233.601 199.148 234.178 199.673C234.472 199.942 234.636 200.305 234.636 200.684C234.636 201.054 234.472 201.423 234.189 201.687C233.895 201.948 233.492 202.106 233.089 202.106Z" fill="#333333"/>
<path d="M209.849 202.106C209.446 202.106 209.043 201.948 208.749 201.687C208.466 201.423 208.302 201.055 208.302 200.684C208.302 200.305 208.466 199.945 208.749 199.673C209.326 199.148 210.372 199.148 210.939 199.673C211.233 199.942 211.396 200.305 211.396 200.684C211.396 201.054 211.233 201.423 210.95 201.687C210.656 201.948 210.263 202.106 209.849 202.106Z" fill="#333333"/>
<path d="M209.849 180.779C209.446 180.779 209.043 180.621 208.749 180.36C208.466 180.096 208.302 179.728 208.302 179.357C208.302 178.979 208.466 178.618 208.749 178.346C209.326 177.821 210.372 177.821 210.939 178.346C211.233 178.615 211.396 178.979 211.396 179.357C211.396 179.728 211.233 180.096 210.939 180.36C210.656 180.621 210.252 180.779 209.849 180.779Z" fill="#333333"/>
<path d="M209.849 159.452C209.446 159.452 209.043 159.295 208.76 159.033C208.466 158.769 208.302 158.401 208.302 158.03C208.302 157.652 208.466 157.292 208.749 157.02C209.326 156.494 210.372 156.494 210.939 157.02C211.233 157.289 211.396 157.652 211.396 158.03C211.396 158.401 211.233 158.769 210.95 159.033C210.656 159.295 210.263 159.452 209.849 159.452Z" fill="#333333"/>
<path d="M0.718018 278.89H16.2097V293.109H0.718018V278.89Z" fill="#333333"/>
<path d="M23.954 278.89H39.4446V293.109H23.954V278.89Z" fill="#333333"/>
<path d="M47.189 278.89H62.6807V293.109H47.189V278.89Z" fill="#333333"/>
<path d="M70.4237 278.89H85.9154V293.109H70.4237V278.89Z" fill="#333333"/>
</svg>
